# AST/ASF file generated using VICON BodyLanguage
# -----------------------------------------------
:version 1.10
:name VICON
:units
  mass 1.0
  length 0.45
  angle deg
:documentation
   .ast/.asf automatically generated from VICON data using
   VICON BodyBuilder and BodyLanguage model FoxedUp or BRILLIANT.MOD
:root
   order TX TY TZ RX RY RZ
   axis XYZ
   position 0 0 0  
   orientation 0 0 0 
:bonedata
  begin
     id 1 
     name lhipjoint
     direction 0.710188 -0.616876 0.339259 
     length 2.5669 
     axis 0 0 0  XYZ
  end
  begin
     id 2 
     name lfemur
     direction 0.34202 -0.939693 0  
     length 7.12796  
     axis 0 0 20  XYZ
    dof rx ry rz
    limits (-160.0 20.0)
           (-70.0 70.0)
           (-60.0 70.0)
  end
  begin
     id 3 
     name ltibia
     direction 0.34202 -0.939693 0   
     length 7.58108   
     axis 0 0 20   XYZ
    dof rx
    limits (-10.0 170.0)
  end
  begin
     id 4 
     name lfoot
     direction 0.0669471 -0.183936 0.980656   
     length 2.17365   
     axis -90 7.62852e-016 20   XYZ
    dof rx rz
    limits (-45.0 90.0)
           (-70.0 20.0)
  end
  begin
     id 5 
     name ltoes
     direction 1.53508e-011 -4.21705e-011 1   
     length 1.09427   
     axis -90 7.62852e-016 20   XYZ
    dof rx
    limits (-90.0 20.0)
  end
  begin
     id 6 
     name rhipjoint
     direction -0.700191 -0.625589 0.34405   
     length 2.53115  
     axis 0 0 0  XYZ 
  end
  begin
     id 7 
     name rfemur
     direction -0.34202 -0.939693 0   
     length 7.33006   
     axis 0 0 -20   XYZ
    dof rx ry rz
    limits (-160.0 20.0)
           (-70.0 70.0)
           (-70.0 60.0)
  end
  begin
     id 8 
     name rtibia
     direction -0.34202 -0.939693 0   
     length 7.64926   
     axis 0 0 -20   XYZ
    dof rx
    limits (-10.0 170.0)
 end
 begin
     id 9 
     name rfoot
     direction -0.0688927 -0.189281 0.979503   
     length 2.20493  
     axis -90 -7.62852e-016 -20   XYZ
    dof rx rz
    limits (-45.0 90.0)
           (-20.0 70.0)
  end
  begin
     id 10 
     name rtoes
     direction -1.53567e-011 -4.21933e-011 1   
     length 1.10919   
     axis -90 -7.62852e-016 -20   XYZ
    dof rx
    limits (-90.0 20.0)
  end
  begin
     id 11 
     name lowerback
     direction -0.0167868 0.989873 -0.140959   
     length 2.14596   
     axis 0 0 0   XYZ
    dof rx ry rz
    limits (-20.0 45.0)
           (-30.0 30.0)
           (-30.0 30.0)
  end
  begin
     id 12 
     name upperback
     direction 0.0129109 0.998033 0.0613525   
     length 2.10457   
     axis 0 0 0   XYZ
    dof rx ry rz
    limits (-20.0 45.0)
           (-30.0 30.0)
           (-30.0 30.0)
  end
  begin
     id 13 
     name thorax
     direction 0.0177047 0.991119 0.131797   
     length 2.17652   
     axis 0 0 0   XYZ
    dof rx ry rz
    limits (-20.0 45.0)
           (-30.0 30.0)
           (-30.0 30.0)
  end
  begin
     id 14 
     name lowerneck
     direction -0.0336893 0.997548 0.0613464   
     length 1.8912   
     axis 0 0 0   XYZ
    dof rx ry rz
    limits (-20.0 45.0)
           (-30.0 30.0)
           (-30.0 30.0)
  end
  begin
     id 15 
     name upperneck
     direction 0.0435909 0.997179 -0.0611028   
     length 1.8829   
     axis 0 0 0   XYZ
    dof rx ry rz
    limits (-20.0 45.0)
           (-30.0 30.0)
           (-30.0 30.0)
  end
  begin
     id 16
     name head
     direction 0.0175076 0.999444 -0.0283782  
     length 1.93197  
     axis 0 0 0   XYZ
    dof rx ry rz
    limits (-20.0 45.0)
           (-30.0 30.0)
           (-30.0 30.0)
  end
  begin
     id 17 
     name lclavicle
     direction 0.919164 0.389875 0.0559876  
     length 3.60004  
     axis 0 0 0   XYZ
    dof ry rz
    limits (-20.0 10.0)
           (0.0 20.0)
  end
  begin
     id 18 
     name lhumerus
     direction 1 -4.48958e-011 6.89191e-027   
     length 5.43301   
     axis 180 -30 -90   XYZ
    dof rx ry rz
    limits (-60.0 90.0)
           (-90.0 90.0)
           (-90.0 90.0)
  end
  begin
     id 19
     name lradius
     direction 1 -4.4897e-011 3.24727e-027   
     length 3.15936   
     axis 180 -30 -90   XYZ
    dof rx
    limits (-10.0 170.0)
  end
  begin
     id 20
     name lwrist
     direction 1 -4.4897e-011 9.00228e-027   
     length 1.57968   
     axis -6.29373e-015 90 90   XYZ
    dof ry
    limits (-180.0 0.0)
 end
  begin
     id 21 
     name lhand
     direction 1 -4.48968e-011 1.80042e-026   
     length 0.712827   
     axis -1.14882e-014 90 90   XYZ
    dof rx rz
    limits (-90.0 90.0)
           (-45.0 45.0)
  end
  begin
     id 22 
     name lfingers
     direction 1 -4.49019e-011 3.60267e-026   
     length 0.574699   
     axis -2.29769e-014 90 90   XYZ
    dof rx
    limits (0.0 90.0)
  end
  begin
     id 23
     name lthumb
     direction 0.707107 -6.3498e-011 0.707107   
     length 0.825157   
     axis -90 45 5.37419e-014   XYZ
    dof rx rz
    limits (-45.0 45.0)
           (-45.0 45.0)
  end
  begin
     id 24 
     name rclavicle
     direction -0.890334 0.455305 -0.00132111   
     length 3.51494  
     axis 0 0 0   XYZ 
    dof ry rz
    limits (-10.0 20.0)
           (-20.0 0.0)
  end
  begin
     id 25 
     name rhumerus
     direction -1 -4.48967e-011 5.07175e-028  
     length 5.34194   
     axis 180 30 90   XYZ
    dof rx ry rz
    limits (-90.0 60.0)
           (-90.0 90.0)
           (-90.0 90.0)
  end
  begin
     id 26 
     name rradius
     direction -1 -4.48955e-011 3.30467e-027   
     length 3.19351   
     axis 180 30 90   XYZ
    dof rx
    limits (-10.0 170.0)
  end
  begin
     id 27 
     name rwrist
     direction -1 -4.48968e-011 9.00208e-027   
     length 1.59676   
     axis -6.29373e-015 -90 -90   XYZ
    dof ry
    limits (-180.0 0.0)
  end
  begin
     id 28
     name rhand
     direction -1 -4.49e-011 1.80099e-026   
     length 0.743862   
     axis -1.14882e-014 -90 -90   XYZ
    dof rx rz
    limits (-90.0 90.0)
           (-45.0 45.0)
  end
  begin
     id 29
     name rfingers
     direction -1 -4.49009e-011 3.6023e-026   
     length 0.599721   
     axis -2.29769e-014 -90 -90   XYZ
    dof rx
    limits (0.0 90.0)
  end
  begin
     id 30
     name rthumb
     direction -0.707107 -6.35025e-011 0.707107   
     length 0.861083   
     axis -90 -45 -5.37419e-014   XYZ
    dof rx rz
    limits (-45.0 45.0)
           (-45.0 45.0)
  end
:hierarchy
  begin
    root lhipjoint rhipjoint lowerback
    lhipjoint lfemur
    lfemur ltibia
    ltibia lfoot
    lfoot ltoes
    rhipjoint rfemur
    rfemur rtibia
    rtibia rfoot
    rfoot rtoes
    lowerback upperback
    upperback thorax
    thorax lowerneck lclavicle rclavicle
    lowerneck upperneck
    upperneck head
    lclavicle lhumerus
    lhumerus lradius
    lradius lwrist
    lwrist lhand lthumb
    lhand lfingers
    rclavicle rhumerus
    rhumerus rradius
    rradius rwrist
    rwrist rhand rthumb
    rhand rfingers
  end

#!OML:ASF H:\Martial Arts Walks\Project 1\Capture day 1\Session 1\male.ASF
:FULLY-SPECIFIED
:DEGREES
471
root -1.36043 13.8981 -13.2345 15.9206 23.8017 7.88571
lowerback 17.4283 1.97363 -6.17082
upperback -3.50228 1.19692 -0.404515
thorax -13.9527 1.04024 2.70103
lowerneck -0.709701 -10.8907 -11.6103
upperneck -1.11421 -14.4981 10.2076
head 1.37538 -7.21793 4.48181
rclavicle 3.53837e-014 -2.38542e-014
rhumerus 46.6546 -5.23122 -48.6615
rradius 26.0066
rwrist 19.0947
rhand -8.86911 -21.9541
rfingers 7.12502
rthumb 17.0724 -51.2239
lclavicle 3.53837e-014 -2.38542e-014
lhumerus -71.6027 -23.1008 108.141
lradius 97.6874
lwrist 51.896
lhand 0.317008 43.314
lfingers 7.12502
lthumb 25.894 71.5707
rfemur -76.7451 -29.606 21.724
rtibia 84.8282
rfoot -14.0858 -23.7408
rtoes 9.12982
lfemur 28.1349 -1.78327 -9.59439
ltibia -6.04305e-014
lfoot -1.36044 30.632
ltoes -27.714
472
root -1.38868 13.9275 -13.1064 16.0207 23.6224 7.60632
lowerback 17.2529 1.99642 -6.07021
upperback -3.53536 1.27152 -0.334529
thorax -13.8918 1.06953 2.70334
lowerneck -0.73983 -10.8481 -11.5324
upperneck -1.11006 -14.4386 10.1968
head 1.36881 -7.18774 4.46958
rclavicle -1.39149e-014 1.51076e-014
rhumerus 46.4391 -5.04664 -48.5382
rradius 26.3924
rwrist 18.8685
rhand -8.83792 -21.9732
rfingers 7.12502
rthumb 17.1025 -51.2404
lclavicle -1.39149e-014 1.51076e-014
lhumerus -71.5532 -23.2945 108.25
lradius 97.4789
lwrist 52.0366
lhand 0.227946 43.1826
lfingers 7.12502
lthumb 25.8087 71.4518
rfemur -76.4962 -29.5742 22.359
rtibia 84.7526
rfoot -14.3429 -23.8743
rtoes 8.13789
lfemur 28.2288 -2.10195 -9.41371
ltibia -1.90833e-014
lfoot -0.226503 30.65
ltoes -27.3815
473
root -1.41905 13.9595 -12.9745 16.1023 23.435 7.33897
lowerback 17.0764 2.03033 -6.0157
upperback -3.55955 1.35006 -0.26938
thorax -13.8217 1.10385 2.72551
lowerneck -0.773493 -10.8077 -11.4629
upperneck -1.09245 -14.3825 10.199
head 1.36884 -7.15915 4.46139
rclavicle -1.98785e-016 -3.18055e-015
rhumerus 46.1902 -4.86399 -48.4244
rradius 26.7882
rwrist 18.6533
rhand -8.78381 -21.9737
rfingers 7.12502
rthumb 17.1545 -51.2365
lclavicle -1.98785e-016 -3.18055e-015
lhumerus -71.4974 -23.4932 108.353
lradius 97.2853
lwrist 52.2432
lhand 0.0825042 43.1748
lfingers 7.12502
lthumb 25.6694 71.4642
rfemur -76.1627 -29.5145 22.9473
rtibia 84.6401
rfoot -14.6545 -23.9582
rtoes 7.12629
lfemur 28.3362 -2.41535 -9.25507
ltibia 0
lfoot 1.09499 30.7282
ltoes -26.8824
474
root -1.45172 13.9941 -12.839 16.1638 23.2437 7.08601
lowerback 16.9042 2.07501 -6.00601
upperback -3.5722 1.43216 -0.2101
thorax -13.7426 1.14277 2.76576
lowerneck -0.811176 -10.7718 -11.3972
upperneck -1.07231 -14.3325 10.2133
head 1.37217 -7.13347 4.45655
rclavicle 3.24019e-014 7.95139e-016
rhumerus 45.9121 -4.69049 -48.3169
rradius 27.1902
rwrist 18.4521
rhand -8.70697 -21.9566
rfingers 7.12502
rthumb 17.2285 -51.2128
lclavicle 3.24019e-014 7.95139e-016
lhumerus -71.4328 -23.6993 108.451
lradius 97.1087
lwrist 52.4791
lhand -0.0950483 43.2249
lfingers 7.12502
lthumb 25.4993 71.5387
rfemur -75.744 -29.4341 23.4883
rtibia 84.491
rfoot -15.0221 -24.0042
rtoes 6.13288
lfemur 26.4658 -2.68746 -9.12048
ltibia 3.85786
lfoot 0.496286 31.2992
ltoes -26.1469
475
root -1.48697 14.0321 -12.7008 16.2028 23.051 6.83295
lowerback 16.7477 2.12863 -6.02737
upperback -3.57784 1.51817 -0.152453
thorax -13.6665 1.18589 2.82068
lowerneck -0.833353 -10.7352 -11.3506
upperneck -1.06828 -14.2829 10.2643
head 1.37252 -7.10822 4.46645
rclavicle 1.98785e-015 2.38542e-015
rhumerus 45.6051 -4.51343 -48.2015
rradius 27.5971
rwrist 18.2484
rhand -8.62389 -21.9309
rfingers 7.12502
rthumb 17.3085 -51.1802
lclavicle 1.98785e-015 2.38542e-015
lhumerus -71.3618 -23.9063 108.546
lradius 96.9465
lwrist 52.7033
lhand -0.298383 43.2835
lfingers 7.12502
lthumb 25.3045 71.625
rfemur -75.2394 -29.3236 23.9987
rtibia 84.2983
rfoot -15.4474 -24.0291
rtoes 5.18493
lfemur 24.6305 -2.96209 -8.97422
ltibia 7.63934
lfoot 0.140179 31.8149
ltoes -25.1017
476
root -1.52448 14.0732 -12.5603 16.2124 22.8655 6.57654
lowerback 16.6087 2.18791 -6.06883
upperback -3.5702 1.60636 -0.0959866
thorax -13.5867 1.23119 2.88515
lowerneck -0.84801 -10.7011 -11.3093
upperneck -1.08772 -14.2363 10.3381
head 1.36724 -7.08467 4.48474
rclavicle 1.37161e-014 -8.74653e-015
rhumerus 45.2822 -4.33981 -48.0809
rradius 27.9993
rwrist 18.0486
rhand -8.54149 -21.9031
rfingers 7.12502
rthumb 17.3878 -51.1453
lclavicle 1.37161e-014 -8.74653e-015
lhumerus -71.2822 -24.1144 108.636
lradius 96.8033
lwrist 52.8732
lhand -0.502868 43.2684
lfingers 7.12502
lthumb 25.1086 71.6375
rfemur -74.6405 -29.1936 24.4791
rtibia 84.0608
rfoot -15.9206 -24.0453
rtoes 4.25363
lfemur 23.0851 -3.25745 -8.801
ltibia 10.8477
lfoot 0.383682 32.2421
ltoes -23.7721
477
root -1.56402 14.1179 -12.4183 16.1892 22.6879 6.29959
lowerback 16.4952 2.25107 -6.10789
upperback -3.55256 1.69891 -0.037982
thorax -13.5114 1.27824 2.9486
lowerneck -0.859605 -10.6709 -11.2741
upperneck -1.12569 -14.1947 10.433
head 1.35858 -7.06367 4.5105
rclavicle 1.33186e-014 -6.36111e-015
rhumerus 44.9475 -4.16468 -47.9524
rradius 28.3924
rwrist 17.8507
rhand -8.46561 -21.8839
rfingers 7.12502
rthumb 17.4608 -51.1197
lclavicle 1.33186e-014 -6.36111e-015
lhumerus -71.1978 -24.3188 108.725
lradius 96.6768
lwrist 52.9591
lhand -0.650424 43.1717
lfingers 7.12502
lthumb 24.9672 71.5605
rfemur -73.9482 -29.0382 24.9482
rtibia 83.7711
rfoot -16.4405 -24.0588
rtoes 3.36625
lfemur 21.5366 -3.11796 -8.3981
ltibia 14.0106
lfoot 0.890396 32.1696
ltoes -22.1548
